<svg width="24" height="24" viewBox="0 0 24 24" fill="none" xmlns="http://www.w3.org/2000/svg">
<path d="M19 10.9001H5C3.89543 10.9001 3 11.8851 3 13.1001V20.8001C3 22.0151 3.89543 23 5 23H19C20.1046 23 21 22.0151 21 20.8001V13.1001C21 11.8851 20.1046 10.9001 19 10.9001Z" stroke="#BDBDBD" stroke-width="1.8" stroke-linecap="round" stroke-linejoin="round"/>
<path d="M7 10.9V6.49999C7 5.0413 7.52678 3.64236 8.46447 2.61091C9.40215 1.57946 10.6739 1 12 1C13.3261 1 14.5979 1.57946 15.5355 2.61091C16.4732 3.64236 17 5.0413 17 6.49999V10.9" stroke="#BDBDBD" stroke-width="1.8" stroke-linecap="round" stroke-linejoin="round"/>
</svg>
